<svg version="1.1" id="Layer_1" xmlns="http://www.w3.org/2000/svg" xmlns:xlink="http://www.w3.org/1999/xlink" x="0px" y="0px"
	 viewBox="0 0 32 32" enable-background="new 0 0 32 32" xml:space="preserve">
<path d="M18,32h-4v-3h4V32z M8,3h3V0H8V3z M11,32v-3H8v3H11z M14,0v3h4V0H14z M27,3h2v2h3V0h-5V3z M3,18v-4H0v4H3z M0,11h3V8H0V11z
	 M3,24v-3H0v3H3z M24,29h-3v3h3V29z M5,29H3v-2H0v5h5V29z M29,27v2h-2v3h5v-5H29z M29,8v3h3V8H29z M3,5V3h2V0H0v5H3z M21,0v3h3V0H21
	z M29,14v4h3v-4H29z M32,21h-3v3h3V21z M22.8,9.1c-0.9-0.9-1.9-1.5-3.1-2c-1.2-0.5-2.4-0.8-3.7-0.8c-1.3,0-2.5,0.3-3.7,0.8
	c-1.2,0.5-2.2,1.2-3.1,2c-0.9,0.9-1.5,1.9-2,3.1S6.4,14.7,6.4,16c0,1.3,0.3,2.6,0.8,3.8c0.5,1.2,1.2,2.2,2,3.1
	c0.9,0.9,1.9,1.5,3.1,2c1.2,0.5,2.4,0.8,3.7,0.8c1.3,0,2.5-0.3,3.7-0.8c1.2-0.5,2.2-1.2,3.1-2c0.9-0.9,1.5-1.9,2-3.1
	c0.5-1.2,0.8-2.4,0.8-3.8c0-1.3-0.3-2.6-0.8-3.7S23.6,10,22.8,9.1z M9.2,16c0-1.2,0.3-2.4,0.9-3.4c0.6-1.1,1.4-1.9,2.5-2.5
	c1-0.6,2.2-0.9,3.4-0.9c1.4,0,2.6,0.4,3.8,1.1l-9.4,9.4C9.6,18.6,9.2,17.3,9.2,16z M22.3,18.6c-0.4,0.8-0.8,1.6-1.5,2.2
	c-0.6,0.6-1.3,1.1-2.2,1.5c-0.8,0.4-1.7,0.5-2.6,0.5c-1.3,0-2.6-0.4-3.7-1.1l9.4-9.4c0.7,1.1,1.1,2.3,1.1,3.7
	C22.8,16.9,22.6,17.8,22.3,18.6z"/>
</svg>
