<svg version="1.1" id="Layer_1" xmlns="http://www.w3.org/2000/svg" xmlns:xlink="http://www.w3.org/1999/xlink" x="0px" y="0px"
	 viewBox="0 0 32 32" enable-background="new 0 0 32 32" xml:space="preserve">
<path d="M18,32h-4v-3h4V32z M8,3h3V0H8V3z M11,32v-3H8v3H11z M14,0v3h4V0H14z M27,3h2v2h3V0h-5V3z M3,18v-4H0v4H3z M0,11h3V8H0V11z
	 M3,24v-3H0v3H3z M24,29h-3v3h3V29z M5,29H3v-2H0v5h5V29z M29,27v2h-2v3h5v-5H29z M29,8v3h3V8H29z M3,5V3h2V0H0v5H3z M21,0v3h3V0H21
	z M29,14v4h3v-4H29z M32,21h-3v3h3V21z M9.2,22.9c1.8,1.8,4.1,2.8,6.8,2.8c2.7,0,4.9-0.9,6.8-2.8c1.8-1.8,2.8-4.1,2.8-6.8
	c0-2.7-0.9-4.9-2.8-6.8c-2-1.9-4.2-2.8-6.8-2.8c-2.6,0-4.9,0.9-6.8,2.8s-2.8,4.1-2.8,6.8C6.4,18.7,7.4,21,9.2,22.9z M11.9,15.2
	l2,2.1l6.2-6.3l2,2l-6.2,6.2l-2,2l-4-4L11.9,15.2z"/>
</svg>
