<?xml version="1.0" encoding="UTF-8" standalone="no"?>
<svg width="18px" height="20px" viewBox="0 0 18 20" version="1.1" xmlns="http://www.w3.org/2000/svg" xmlns:xlink="http://www.w3.org/1999/xlink" xmlns:sketch="http://www.bohemiancoding.com/sketch/ns">
    <!-- Generator: Sketch 3.3.3 (12081) - http://www.bohemiancoding.com/sketch -->
    <title>Fill 180 Copy</title>
    <desc>Created with Sketch.</desc>
    <defs></defs>
    <g id="Page-1" stroke="none" stroke-width="1" fill="none" fill-rule="evenodd" sketch:type="MSPage">
        <g id="Notifications-(Cloudant)-V2" sketch:type="MSArtboardGroup" transform="translate(-1304.000000, -65.000000)" fill="#C0C0C0">
            <g id="Group" sketch:type="MSLayerGroup" transform="translate(1278.000000, 42.000000)">
                <path d="M27.0872514,38.9987862 C27.3474103,39.2589451 27.6639095,39.3890246 28.016864,39.3890246 L32.6665839,39.3890246 C32.6665839,40.1330461 32.9267429,40.7469881 33.4478893,41.267306 C33.9682073,41.7876239 34.600377,42.0486114 35.3261707,42.0486114 C36.0693637,42.0486114 36.6833057,41.7876239 37.2044521,41.267306 C37.7247701,40.7469881 37.984929,40.1330461 37.984929,39.3890246 L42.634649,39.3890246 C42.9876035,39.3890246 43.3041026,39.2589451 43.5642616,38.9987862 C43.8244205,38.7377987 43.9545,38.4221281 43.9545,38.0683451 C42.634649,36.9531414 41.6486962,35.5769502 40.9792426,33.9397715 C40.309789,32.3034214 39.9750622,30.5742757 39.9750622,28.7697337 C39.9750622,27.617246 39.6403354,26.7240889 38.9891094,26.0546352 C38.3196558,25.3669539 37.4082709,24.9767155 36.2557833,24.8275798 C36.3112949,24.715728 36.3303512,24.5856485 36.3303512,24.455569 C36.3303512,24.1763538 36.2367271,23.9352511 36.0329083,23.7488315 C35.8464887,23.5441841 35.6045574,23.4513886 35.3261707,23.4513886 C35.0469556,23.4513886 34.8240805,23.5441841 34.6376609,23.7488315 C34.4330136,23.9352511 34.340218,24.1763538 34.340218,24.455569 C34.340218,24.5856485 34.3584457,24.715728 34.4147859,24.8275798 C33.2614697,24.9767155 32.3500848,25.3669539 31.6806312,26.0546352 C31.0111776,26.7240889 30.6764508,27.617246 30.6764508,28.7697337 C30.6764508,30.5742757 30.341724,32.3034214 29.6722703,33.9397715 C29.0028167,35.5769502 28.016864,36.9531414 26.697013,38.0683451 C26.697013,38.4221281 26.8270924,38.7377987 27.0872514,38.9987862 L27.0872514,38.9987862 Z M33.6707644,39.2216612 C33.7826162,39.2216612 33.8381278,39.2771728 33.8381278,39.3890246 C33.8381278,39.7983193 33.986435,40.1512738 34.2847064,40.430489 C34.563093,40.7279319 34.9168761,40.8770676 35.3261707,40.8770676 C35.437194,40.8770676 35.4935341,40.9325792 35.4935341,41.044431 C35.4935341,41.1554542 35.437194,41.2117944 35.3261707,41.2117944 C34.8240805,41.2117944 34.3957296,41.0253747 34.0427751,40.6724202 C33.6889921,40.3186372 33.503401,39.8911148 33.503401,39.3890246 C33.503401,39.2771728 33.5589126,39.2216612 33.6707644,39.2216612 L33.6707644,39.2216612 Z" id="Fill-180-Copy" sketch:type="MSShapeGroup"></path>
            </g>
        </g>
    </g>
</svg>