<?xml version="1.0" encoding="utf-8"?>
<!-- Generated by IcoMoon.io -->
<!DOCTYPE svg PUBLIC "-//W3C//DTD SVG 1.1//EN" "http://www.w3.org/Graphics/SVG/1.1/DTD/svg11.dtd">
<svg version="1.1" xmlns="http://www.w3.org/2000/svg" xmlns:xlink="http://www.w3.org/1999/xlink" width="34" height="32" viewBox="0 0 34 32">
<g>
</g>
	<path d="M16 16q0-1.893-1.339-3.232t-3.232-1.339-3.232 1.339-1.339 3.232 1.339 3.232 3.232 1.339 3.232-1.339 1.339-3.232zM29.714 25.143q0-0.929-0.679-1.607t-1.607-0.679-1.607 0.679-0.679 1.607q0 0.946 0.67 1.616t1.616 0.67 1.616-0.67 0.67-1.616zM29.714 6.857q0-0.929-0.679-1.607t-1.607-0.679-1.607 0.679-0.679 1.607q0 0.946 0.67 1.616t1.616 0.67 1.616-0.67 0.67-1.616zM22.857 14.375v3.304q0 0.179-0.125 0.348t-0.286 0.188l-2.768 0.429q-0.196 0.625-0.571 1.357 0.607 0.857 1.607 2.054 0.125 0.179 0.125 0.357 0 0.214-0.125 0.339-0.411 0.536-1.473 1.598t-1.402 1.063q-0.196 0-0.375-0.125l-2.054-1.607q-0.661 0.339-1.375 0.554-0.196 1.929-0.411 2.768-0.125 0.429-0.536 0.429h-3.321q-0.196 0-0.357-0.134t-0.179-0.313l-0.411-2.732q-0.607-0.179-1.339-0.554l-2.107 1.589q-0.125 0.125-0.357 0.125-0.196 0-0.375-0.143-2.571-2.375-2.571-2.857 0-0.161 0.125-0.339 0.179-0.25 0.732-0.946t0.839-1.089q-0.411-0.786-0.625-1.464l-2.714-0.429q-0.179-0.018-0.304-0.17t-0.125-0.348v-3.304q0-0.179 0.125-0.348t0.286-0.188l2.768-0.429q0.196-0.625 0.571-1.357-0.607-0.857-1.607-2.054-0.125-0.196-0.125-0.357 0-0.214 0.125-0.357 0.393-0.536 1.464-1.589t1.411-1.054q0.196 0 0.375 0.125l2.054 1.607q0.607-0.321 1.375-0.571 0.196-1.929 0.411-2.75 0.125-0.429 0.536-0.429h3.321q0.196 0 0.357 0.134t0.179 0.313l0.411 2.732q0.607 0.179 1.339 0.554l2.107-1.589q0.143-0.125 0.357-0.125 0.196 0 0.375 0.143 2.571 2.375 2.571 2.857 0 0.161-0.125 0.339-0.214 0.286-0.75 0.964t-0.804 1.071q0.411 0.857 0.607 1.464l2.714 0.411q0.179 0.036 0.304 0.188t0.125 0.348zM34.286 23.893v2.5q0 0.286-2.661 0.554-0.214 0.482-0.536 0.929 0.911 2.018 0.911 2.464 0 0.071-0.071 0.125-2.179 1.268-2.214 1.268-0.143 0-0.821-0.839t-0.929-1.214q-0.357 0.036-0.536 0.036t-0.536-0.036q-0.25 0.375-0.929 1.214t-0.821 0.839q-0.036 0-2.214-1.268-0.071-0.054-0.071-0.125 0-0.446 0.911-2.464-0.321-0.446-0.536-0.929-2.661-0.268-2.661-0.554v-2.5q0-0.286 2.661-0.554 0.232-0.518 0.536-0.929-0.911-2.018-0.911-2.464 0-0.071 0.071-0.125 0.071-0.036 0.625-0.357t1.054-0.607 0.536-0.286q0.143 0 0.821 0.83t0.929 1.205q0.357-0.036 0.536-0.036t0.536 0.036q0.911-1.268 1.643-2l0.107-0.036q0.071 0 2.214 1.25 0.071 0.054 0.071 0.125 0 0.446-0.911 2.464 0.304 0.411 0.536 0.929 2.661 0.268 2.661 0.554zM34.286 5.607v2.5q0 0.286-2.661 0.554-0.214 0.482-0.536 0.929 0.911 2.018 0.911 2.464 0 0.071-0.071 0.125-2.179 1.268-2.214 1.268-0.143 0-0.821-0.839t-0.929-1.214q-0.357 0.036-0.536 0.036t-0.536-0.036q-0.25 0.375-0.929 1.214t-0.821 0.839q-0.036 0-2.214-1.268-0.071-0.054-0.071-0.125 0-0.446 0.911-2.464-0.321-0.446-0.536-0.929-2.661-0.268-2.661-0.554v-2.5q0-0.286 2.661-0.554 0.232-0.518 0.536-0.929-0.911-2.018-0.911-2.464 0-0.071 0.071-0.125 0.071-0.036 0.625-0.357t1.054-0.607 0.536-0.286q0.143 0 0.821 0.83t0.929 1.205q0.357-0.036 0.536-0.036t0.536 0.036q0.911-1.268 1.643-2l0.107-0.036q0.071 0 2.214 1.25 0.071 0.054 0.071 0.125 0 0.446-0.911 2.464 0.304 0.411 0.536 0.929 2.661 0.268 2.661 0.554z" fill="#000000" />
</svg>
