<?xml version="1.0" standalone="no"?>
<!DOCTYPE svg PUBLIC "-//W3C//DTD SVG 1.1//EN" "http://www.w3.org/Graphics/SVG/1.1/DTD/svg11.dtd" >
<svg xmlns="http://www.w3.org/2000/svg" xmlns:xlink="http://www.w3.org/1999/xlink" version="1.1" viewBox="0 -257 2048 1792">
  <g transform="matrix(1 0 0 -1 0 1536)">
   <path fill="currentColor"
d="M2020 1525q28 -20 28 -53v-1408q0 -20 -11 -36t-29 -23l-640 -256q-24 -11 -48 0l-616 246l-616 -246q-10 -5 -24 -5q-19 0 -36 11q-28 20 -28 53v1408q0 20 11 36t29 23l640 256q24 11 48 0l616 -246l616 246q32 13 60 -6zM736 1390v-1270l576 -230v1270zM128 1173
v-1270l544 217v1270zM1920 107v1270l-544 -217v-1270z" />
  </g>

</svg>
